# xmcd
#
# Track frame offsets: 
#        150
#        18755
#        33700
#
# Disc length: 620 seconds
#
# Revision: 0
# Processed by: cddbd v1.4PL0 Copyright (c) Steve Scherf et al.
# Submitted via: ExactAudioCopy v0.95a3
#
DISCID=1a026a03
DTITLE=Sula Miranda - Minha Estrada
DYEAR=1997
DGENRE=Country
TTITLE0=Caminhoneiro do Amor
TTITLE1=Com o pé na Estrada
TTITLE2=Carona
EXTD=
EXTT0=
EXTT1=
EXTT2=
PLAYORDER=
